<?xml version="1.0" standalone="no"?>
<!DOCTYPE svg PUBLIC "-//W3C//DTD SVG 20010904//EN"
 "http://www.w3.org/TR/2001/REC-SVG-20010904/DTD/svg10.dtd">
<svg version="1.0" xmlns="http://www.w3.org/2000/svg"
 width="256.000000pt" height="256.000000pt" viewBox="0 0 256.000000 256.000000"
 preserveAspectRatio="xMidYMid meet">

<g transform="translate(0.000000,256.000000) scale(0.100000,-0.100000)"
fill="#000000" stroke="none">
<path d="M1611 2544 c-108 -29 -239 -122 -288 -205 -15 -24 -22 -27 -112 -32
-95 -6 -233 -37 -322 -72 l-45 -18 -53 36 c-67 46 -119 61 -198 54 -207 -16
-324 -238 -224 -424 l31 -57 -46 -93 c-48 -98 -89 -242 -100 -348 l-7 -65 -57
0 c-53 0 -61 -3 -84 -31 l-26 -31 0 -424 c0 -376 -2 -424 -15 -424 -9 0 -27
-11 -40 -25 -22 -21 -25 -33 -25 -93 0 -55 4 -75 21 -96 20 -25 23 -26 134
-26 l114 0 30 -43 c118 -173 372 -165 486 16 l17 27 229 0 228 0 32 -45 c123
-171 370 -162 484 18 16 25 22 27 90 27 68 0 75 2 94 26 17 22 21 41 21 108 0
44 -7 106 -15 136 l-14 54 71 76 c40 41 77 81 84 89 9 10 26 -6 89 -89 l77
-102 129 174 c162 217 181 270 143 398 -21 72 -107 159 -179 182 l-50 15 -6
99 c-11 155 -57 322 -121 434 l-22 37 22 54 c83 208 38 417 -121 565 -32 30
-81 66 -108 79 -102 52 -241 68 -348 39z m301 -112 c79 -39 159 -120 196 -199
24 -53 27 -69 27 -173 0 -151 -10 -171 -206 -420 -85 -108 -163 -207 -174
-222 l-21 -26 -169 216 c-94 119 -182 241 -197 272 -75 151 -47 337 68 461 92
97 173 130 315 126 84 -2 103 -6 161 -35z m-1202 -227 c37 -19 81 -65 96 -102
18 -41 18 -115 0 -156 -16 -39 -173 -252 -186 -252 -13 0 -169 211 -186 251
-20 49 -17 120 7 172 46 93 175 135 269 87z m544 -27 c-28 -107 -12 -243 40
-346 21 -41 375 -503 425 -555 18 -18 25 -11 202 217 101 129 187 235 190 236
12 0 70 -144 90 -223 10 -45 22 -124 26 -174 5 -85 4 -93 -13 -99 -150 -47
-229 -147 -228 -289 0 -68 19 -120 66 -187 10 -14 3 -28 -48 -89 -32 -40 -64
-72 -69 -72 -5 1 -33 95 -62 210 -47 188 -55 211 -83 236 l-30 27 -220 0 -220
0 0 100 c0 94 -2 103 -25 125 l-24 25 -471 0 -472 0 7 53 c13 100 45 217 81
297 20 44 40 80 43 80 3 -1 39 -46 80 -101 40 -55 77 -98 82 -97 5 2 65 79
133 171 150 200 166 239 147 351 -14 81 -19 75 94 111 80 25 168 41 236 44
l36 1 -13 -52z m-764 -1093 c0 -95 4 -155 10 -155 5 0 53 21 105 47 l95 48
105 -53 105 -52 0 160 0 160 163 -2 162 -3 3 -407 2 -408 -225 0 c-147 0 -225
4 -225 10 0 21 -80 96 -127 120 -39 20 -63 25 -128 25 -71 0 -86 -4 -135 -31
-32 -18 -70 -50 -90 -77 -34 -46 -37 -47 -87 -47 l-53 0 0 410 0 410 160 0
160 0 0 -155z m330 65 c0 -44 -2 -80 -5 -80 -2 0 -29 12 -60 27 l-55 27 -55
-27 c-31 -15 -58 -27 -60 -27 -3 0 -5 36 -5 80 l0 80 120 0 120 0 0 -80z
m1544 -23 c22 -12 53 -39 70 -60 25 -31 31 -49 34 -100 2 -34 -1 -73 -6 -87
-14 -35 -183 -262 -193 -258 -14 5 -170 219 -185 254 -29 70 -7 171 47 220 66
59 163 72 233 31z m-626 -150 c6 -6 13 -24 17 -40 l7 -27 -111 0 c-105 0 -113
-1 -136 -25 -22 -21 -25 -33 -25 -100 0 -67 3 -79 25 -100 23 -24 29 -25 167
-25 l144 0 27 -112 c15 -62 27 -119 27 -125 0 -9 -15 -13 -43 -13 -39 0 -45 4
-77 48 -93 124 -271 157 -390 71 -22 -16 -42 -29 -45 -29 -3 0 -5 110 -5 245
l0 245 204 0 c151 0 206 -3 214 -13z m52 -166 c0 -5 3 -23 6 -40 l7 -31 -117
0 -116 0 0 40 0 40 110 0 c61 0 110 -4 110 -9z m-1159 -344 c112 -60 143 -211
62 -308 -87 -103 -256 -90 -328 26 -63 102 -20 242 90 291 48 21 126 17 176
-9z m989 1 c114 -58 145 -211 63 -309 -82 -97 -252 -91 -320 12 -116 176 70
391 257 297z m-1370 -178 l0 -40 -85 0 -85 0 0 40 0 40 85 0 85 0 0 -40z m990
0 l0 -40 -207 0 -208 0 0 40 0 40 208 0 207 0 0 -40z m660 0 l0 -40 -40 0 -40
0 0 40 0 40 40 0 40 0 0 -40z"/>
<path d="M1657 2390 c-96 -24 -183 -97 -225 -188 -38 -81 -38 -193 -1 -273
132 -280 527 -252 621 43 47 149 -30 322 -176 393 -59 29 -158 40 -219 25z
m157 -92 c55 -16 138 -99 154 -154 29 -98 8 -178 -64 -251 -156 -157 -414 -50
-414 172 0 74 23 126 77 178 65 62 154 82 247 55z"/>
<path d="M561 2132 c-77 -39 -90 -135 -26 -199 27 -27 40 -33 78 -33 61 0 108
33 125 87 12 37 11 46 -6 86 -31 70 -102 95 -171 59z m87 -84 c32 -32 -8 -80
-48 -58 -19 10 -27 49 -13 63 11 11 48 8 61 -5z"/>
<path d="M990 1445 l0 -45 40 0 40 0 0 45 0 45 -40 0 -40 0 0 -45z"/>
<path d="M1160 1445 l0 -45 40 0 40 0 0 45 0 45 -40 0 -40 0 0 -45z"/>
<path d="M1320 1445 l0 -45 40 0 40 0 0 45 0 45 -40 0 -40 0 0 -45z"/>
<path d="M2225 1066 c-115 -52 -98 -214 25 -241 61 -13 150 60 150 124 0 82
-102 150 -175 117z m75 -91 c26 -32 -13 -81 -47 -59 -35 22 -23 74 17 74 10 0
23 -7 30 -15z"/>
<path d="M504 409 c-125 -35 -119 -212 9 -244 68 -18 147 46 147 118 0 91 -73
149 -156 126z m60 -95 c19 -19 20 -25 3 -49 -20 -26 -67 -13 -67 18 0 43 35
60 64 31z"/>
<path d="M1495 409 c-76 -21 -114 -111 -77 -178 42 -78 135 -90 199 -26 29 29
33 40 33 83 0 72 -34 111 -110 127 -8 2 -29 -1 -45 -6z m67 -104 c8 -19 8 -28
-2 -40 -23 -28 -70 -12 -70 25 0 42 54 54 72 15z"/>
</g>
</svg>
