<?xml version="1.0" standalone="no"?>
<!DOCTYPE svg PUBLIC "-//W3C//DTD SVG 20010904//EN"
 "http://www.w3.org/TR/2001/REC-SVG-20010904/DTD/svg10.dtd">
<svg version="1.0" xmlns="http://www.w3.org/2000/svg"
 width="1200.000000pt" height="627.000000pt" viewBox="0 0 1200.000000 627.000000"
 preserveAspectRatio="xMidYMid meet">

<g transform="translate(0.000000,627.000000) scale(0.100000,-0.100000)"
fill="#000000" stroke="none">
<path d="M0 3135 l0 -3135 6000 0 6000 0 0 3135 0 3135 -6000 0 -6000 0 0
-3135z m2380 278 c-1 -10 -13 -72 -28 -138 l-27 -120 -241 -3 -241 -2 22 92
c13 51 28 112 34 135 l12 42 107 4 c321 9 362 8 362 -10z m4603 -16 c65 -50
66 -77 14 -332 -105 -504 -170 -819 -199 -962 l-32 -153 -153 0 c-84 0 -153 2
-153 4 0 7 94 451 175 827 41 190 75 349 75 352 0 4 -916 7 -2035 7 -1836 0
-2035 2 -2035 16 0 33 62 259 73 266 7 4 962 7 2123 5 l2111 -2 36 -28z m1968
-570 c125 -52 272 -178 382 -328 l49 -66 81 -11 c45 -7 150 -21 232 -33 161
-22 327 -59 372 -83 42 -21 100 -83 139 -148 42 -69 132 -256 137 -283 1 -11
6 -25 9 -31 4 -6 9 -22 11 -35 4 -22 1 -25 -22 -23 -14 1 -62 2 -106 3 -45 1
-74 5 -67 9 10 7 10 14 -2 37 -8 16 -13 32 -10 37 3 4 0 8 -5 8 -6 0 -11 6
-11 13 0 24 -101 192 -134 223 -39 37 -82 48 -380 99 -342 58 -289 34 -499
228 -100 93 -200 180 -221 195 l-39 27 -346 3 c-190 2 -361 0 -380 -3 -50 -9
-91 -57 -91 -106 0 -60 26 -69 213 -69 187 0 239 -12 290 -69 19 -21 40 -55
47 -76 31 -92 -19 -239 -108 -315 -91 -79 -99 -80 -494 -80 l-348 0 1 28 c0
15 6 52 12 82 11 49 15 56 42 61 17 4 148 7 293 8 l264 1 29 29 c22 23 29 39
29 68 0 74 -5 76 -206 80 -192 4 -228 10 -275 50 -125 106 -78 341 89 445 72
45 95 47 542 47 421 1 426 0 481 -22z m-6856 -19 c-4 -18 -40 -185 -81 -370
-41 -186 -74 -340 -74 -343 0 -3 82 -5 181 -5 l182 0 -7 -32 c-4 -18 -9 -50
-13 -70 l-6 -38 -338 0 c-217 0 -339 4 -339 10 0 12 179 850 185 868 3 9 45
12 160 12 l157 0 -7 -32z m1232 9 c81 -44 82 -120 9 -444 -55 -245 -73 -296
-127 -357 -54 -62 -88 -68 -421 -64 -317 3 -319 4 -352 59 -35 60 -32 109 29
389 62 293 82 344 153 394 22 16 58 32 79 37 21 4 164 7 318 6 247 -2 284 -4
312 -20z m1007 15 c3 -5 -2 -38 -10 -75 l-16 -67 -231 0 c-187 -1 -236 -3
-251 -15 -15 -11 -33 -75 -78 -281 -70 -317 -72 -304 48 -304 101 0 116 15
142 140 11 52 18 97 17 98 -2 2 -38 4 -79 4 -86 1 -84 -1 -62 93 l11 50 238 3
c130 1 237 -1 237 -5 0 -5 -25 -124 -56 -265 l-57 -258 -346 0 c-310 0 -350 2
-380 18 -55 27 -74 62 -74 129 1 75 99 534 126 593 29 62 95 125 143 138 46
12 670 16 678 4z m466 -1 c0 -8 -42 -212 -139 -680 -23 -107 -41 -196 -41
-198 0 -2 -70 -3 -155 -3 l-155 0 4 23 c3 12 12 54 20 92 9 39 47 219 86 400
39 182 73 338 76 347 4 14 20 18 87 21 179 7 217 7 217 -2z m1709 -18 c0 -16
-6 -50 -13 -78 l-11 -50 -118 -3 c-64 -1 -117 -4 -117 -6 0 -2 -15 -73 -34
-158 -19 -84 -53 -238 -76 -343 -22 -104 -43 -198 -46 -207 -5 -16 -21 -18
-155 -18 -166 0 -157 -4 -139 73 5 23 37 170 70 327 33 157 62 295 65 308 5
22 4 22 -104 22 -60 0 -112 4 -115 9 -3 5 1 41 10 80 l16 71 384 0 384 0 -1
-27z m1211 21 c0 -3 -7 -36 -16 -75 l-16 -69 -177 0 c-161 0 -179 -2 -195 -19
-23 -25 -136 -529 -124 -553 8 -16 28 -18 195 -18 l185 0 -6 -22 c-3 -13 -11
-47 -17 -75 l-12 -53 -274 0 c-288 0 -317 4 -355 47 -40 44 -38 97 8 325 24
117 53 248 64 291 25 101 71 166 142 201 l52 26 273 0 c150 0 273 -2 273 -6z
m-2080 -16 c-1 -7 -7 -38 -14 -68 l-12 -55 -217 -5 c-152 -4 -220 -9 -228 -17
-7 -7 -13 -34 -13 -60 l-1 -48 175 -5 c150 -4 180 -8 207 -24 55 -34 60 -63
34 -194 -57 -278 -82 -333 -170 -371 -47 -20 -65 -21 -355 -21 -347 0 -316
-10 -292 90 l13 55 220 3 c169 2 223 5 232 16 19 23 26 107 10 117 -8 5 -94 9
-191 9 -175 0 -177 0 -207 26 -27 22 -31 32 -31 73 0 27 16 120 35 207 38 172
60 218 124 261 34 23 38 23 357 23 253 0 324 -3 324 -12z m4071 -717 c36 -18
84 -51 106 -74 55 -57 116 -172 109 -203 -4 -13 -3 -24 1 -23 29 5 31 -5 3
-11 -19 -5 -47 -6 -62 -3 -16 3 -34 0 -42 -6 -11 -9 -21 -8 -45 7 -17 10 -28
22 -25 25 4 3 -20 33 -52 66 -69 69 -114 86 -214 79 -49 -4 -77 -12 -110 -33
-48 -30 -80 -59 -80 -73 0 -5 -11 -19 -25 -32 -14 -13 -25 -31 -25 -39 0 -14
-2 -14 -9 -2 -7 11 -30 15 -87 14 -42 0 -73 2 -68 6 5 3 10 15 12 26 8 49 70
153 120 201 90 88 167 115 322 111 96 -2 111 -6 171 -36z m-5136 -323 c-3 -13
-9 -44 -15 -69 -21 -99 -18 -97 -107 -92 -126 7 -119 1 -115 85 2 40 8 79 14
86 7 8 44 12 119 12 108 0 109 0 104 -22z m5538 15 c-13 -2 -35 -2 -50 0 -16
2 -5 4 22 4 28 0 40 -2 28 -4z"/>
<path d="M2864 2680 c-12 -5 -25 -13 -28 -19 -10 -16 -116 -497 -116 -526 0
-37 37 -48 140 -42 67 4 87 9 100 24 23 29 127 530 113 551 -8 14 -29 17 -99
19 -49 1 -99 -2 -110 -7z"/>
</g>
</svg>
